<svg width="39" height="39" viewBox="0 0 39 39" fill="none" xmlns="http://www.w3.org/2000/svg">
<path d="M19.6271 8.54688C16.8786 8.54688 14.6415 10.784 14.6415 13.5325C14.6415 16.2811 16.8786 18.5182 19.6271 18.5182C22.3757 18.5182 24.6128 16.2811 24.6128 13.5325C24.6128 10.784 22.3757 8.54688 19.6271 8.54688ZM19.6271 17.0937C17.6635 17.0937 16.066 15.4962 16.066 13.5325C16.066 11.5689 17.6635 9.97135 19.6271 9.97135C21.5908 9.97135 23.1883 11.5689 23.1883 13.5325C23.1883 15.4962 21.5908 17.0937 19.6271 17.0937Z" fill="#CFA55B"/>
<path d="M29.159 4.00064C26.5793 1.42091 23.1491 0 19.5011 0C15.8523 0 12.4228 1.42091 9.84312 4.00064C5.06899 8.77406 4.4757 17.7554 8.55824 23.1969L19.5011 39L30.4275 23.2189C34.5264 17.7554 33.9331 8.77406 29.159 4.00064ZM29.2723 22.3863L19.5011 36.4972L9.71421 22.3643C6.01128 17.427 6.5419 9.31607 10.8509 5.00774C13.1614 2.69724 16.2333 1.42448 19.5011 1.42448C22.7688 1.42448 25.8407 2.69724 28.1519 5.00774C32.4609 9.31607 32.9916 17.427 29.2723 22.3863Z" fill="#CFA55B"/>
</svg>
